# xmcd CD database file
#
# Track frame offsets:
#	150
#	18175
#	33599
#	45741
#	63561
#	83195
#	95650
#	114741
#	131908
#	146126
#	161312
#
# Disc length: 2413 seconds
#
# Revision: 1
# Processed by: cddbd v1.5.2PL0 Copyright (c) Steve Scherf et al.
# Submitted via: CDex 1.51
#
DISCID=99096b0b
DTITLE=So They Say - Antidote For Irony
DYEAR=2006
DGENRE=Rock
TTITLE0=In Loving Memory of
TTITLE1=Antidote For Irony
TTITLE2=Anxiety Is Setting In
TTITLE3=Good-Bye
TTITLE4=In Essence We Are Falling
TTITLE5=You Asked "Where Are We Now?"
TTITLE6=Over Exposed Photo
TTITLE7=The Burden
TTITLE8=Act Like You're Listening, Till It's Your Turn To Talk
TTITLE9=Talking In Circles
TTITLE10=A Beautiful Plan
EXTD=YEAR: 2006
EXTT0=
EXTT1=
EXTT2=
EXTT3=
EXTT4=
EXTT5=
EXTT6=
EXTT7=
EXTT8=
EXTT9=
EXTT10=
PLAYORDER=
